<svg xmlns="http://www.w3.org/2000/svg" viewBox="39.400001525878906 -0.10000000149011612 20.599994659423828 20.5"><g xmlns="http://www.w3.org/2000/svg" id="Star_logo">
	<path d="M55.2,12l-1.6-2l1.6-1.9l3.7,1.9L55.2,12L55.2,12z M56.2,16.5l-3.9-1.2c0.1-0.3,0.2-0.6,0.2-0.9c0.1-0.6,0.2-1.2,0.1-1.7   l2.3-0.2L56.2,16.5L56.2,16.5z M51.6,14.3c0,0.1-0.1,0.3-0.1,0.5L50,13.5l0.7-1.3l1,0.3C51.8,13,51.7,13.6,51.6,14.3 M49.7,19.2   l-1.9-3.7l1.9-1.6l1.7,1.4C50.8,17.2,49.7,19.2,49.7,19.2 M47.5,12.6l1.4-0.4l0.7,1.3L47.7,15L47.5,12.6L47.5,12.6z M47.1,12.3   l-2.4-0.2l1.5-1.8l1.3,0.7L47.1,12.3L47.1,12.3z M43.2,16.5l1.3-4l2.5,0.2l0.2,2.5L43.2,16.5L43.2,16.5z M40.5,10l3.7-1.9l1.6,1.9   l-1.6,2L40.5,10L40.5,10z M43.2,3.5l3.9,1.3c-0.1,0.3-0.2,0.6-0.2,0.9c-0.1,0.6-0.2,1.2-0.1,1.7c-0.3,0-2.3,0.2-2.3,0.2L43.2,3.5   L43.2,3.5z M47.8,5.7c0-0.2,0.1-0.3,0.1-0.5l1.5,1.3l-0.7,1.3l-1-0.3C47.7,7.1,47.7,6.5,47.8,5.7 M49.7,0.8L49.7,0.8l1.9,3.7   l-1.9,1.6L48,4.7C48.6,2.7,49.7,0.8,49.7,0.8 M52,7.4l-1.4,0.4L50,6.6L51.8,5L52,7.4L52,7.4z M49.9,9.5c-1.1-0.5-1.7-0.9-2-1.6   l0.9,0.3c0.1,0,0.2,0,0.2-0.1l0.7-1.3l0.7,1.3c0,0.1,0.1,0.1,0.2,0.1L52,7.8l-0.4,1.4c0,0.1,0,0.2,0.1,0.2l1.3,0.7l-1.1,0.6   C51.4,10.2,50.7,9.8,49.9,9.5 M47.4,9.2l-1.1,0.6L44.7,8l2.1-0.2C46.9,8.3,47.1,8.8,47.4,9.2 M47.8,10.7L46.6,10l1.1-0.6   c0.4,0.4,1,0.8,1.8,1.1c1.1,0.5,1.7,0.9,2,1.6l-0.9-0.3c-0.1,0-0.2,0-0.2,0.1l-0.7,1.3L49,11.9c0-0.1-0.1-0.1-0.2-0.1   c0,0,0,0-0.1,0l-1.4,0.4l0.4-1.4C48,10.8,47.9,10.7,47.8,10.7 M52,10.9l1.1-0.6l1.5,1.8l-2.1,0.2C52.6,11.7,52.4,11.3,52,10.9    M52.3,7.8L54.7,8l-1.5,1.8l-1.3-0.7L52.3,7.8L52.3,7.8z M56.2,3.5l-1.3,4l-2.5-0.2l-0.2-2.5L56.2,3.5L56.2,3.5z M59.7,9.8   l-4.2-2.1L57,3.2c0-0.1,0-0.2-0.1-0.3s-0.2-0.1-0.3-0.1l-4.5,1.4L50,0.1c0-0.1-0.1-0.2-0.3-0.2S49.5,0,49.5,0.1   c0,0-1.4,2.1-2.2,4.2l-4.5-1.4c-0.1,0-0.2,0-0.3,0.1s-0.1,0.2-0.1,0.3l1.4,4.5l-4.2,2.1c-0.1,0-0.2,0.1-0.2,0.3s0.1,0.2,0.2,0.3   l4.2,2.1l-1.4,4.5c0,0.1,0,0.2,0.1,0.3c0.1,0.1,0.2,0.1,0.3,0.1l4.5-1.4l0,0l2.1,4.2c0,0.1,0.1,0.1,0.3,0.1c0.1,0,0.2-0.1,0.3-0.2   c0,0,1.4-2.1,2.2-4.2l4.5,1.4c0.1,0,0.2,0,0.3-0.1c0-0.2,0-0.3,0-0.4l-1.4-4.5l4.2-2.1c0.1,0,0.2-0.1,0.2-0.3   C59.9,9.9,59.8,9.8,59.7,9.8"></path>
</g></svg>