<svg xmlns="http://www.w3.org/2000/svg" xmlns:xlink="http://www.w3.org/1999/xlink" version="1.1" id="Layer_1" x="0px" y="0px" viewBox="0 0 113 32" style="enable-background:new 0 0 113 32;" xml:space="preserve">
<style type="text/css">
	.st0{fill:none;}
</style>
<g id="Clear_space">
	<rect x="-15.9" y="-20.8" class="st0" width="144.1" height="72.6"/>
</g>
<g id="Star_logo">
	<path d="M55.2,12l-1.6-2l1.6-1.9l3.7,1.9L55.2,12L55.2,12z M56.2,16.5l-3.9-1.2c0.1-0.3,0.2-0.6,0.2-0.9c0.1-0.6,0.2-1.2,0.1-1.7   l2.3-0.2L56.2,16.5L56.2,16.5z M51.6,14.3c0,0.1-0.1,0.3-0.1,0.5L50,13.5l0.7-1.3l1,0.3C51.8,13,51.7,13.6,51.6,14.3 M49.7,19.2   l-1.9-3.7l1.9-1.6l1.7,1.4C50.8,17.2,49.7,19.2,49.7,19.2 M47.5,12.6l1.4-0.4l0.7,1.3L47.7,15L47.5,12.6L47.5,12.6z M47.1,12.3   l-2.4-0.2l1.5-1.8l1.3,0.7L47.1,12.3L47.1,12.3z M43.2,16.5l1.3-4l2.5,0.2l0.2,2.5L43.2,16.5L43.2,16.5z M40.5,10l3.7-1.9l1.6,1.9   l-1.6,2L40.5,10L40.5,10z M43.2,3.5l3.9,1.3c-0.1,0.3-0.2,0.6-0.2,0.9c-0.1,0.6-0.2,1.2-0.1,1.7c-0.3,0-2.3,0.2-2.3,0.2L43.2,3.5   L43.2,3.5z M47.8,5.7c0-0.2,0.1-0.3,0.1-0.5l1.5,1.3l-0.7,1.3l-1-0.3C47.7,7.1,47.7,6.5,47.8,5.7 M49.7,0.8L49.7,0.8l1.9,3.7   l-1.9,1.6L48,4.7C48.6,2.7,49.7,0.8,49.7,0.8 M52,7.4l-1.4,0.4L50,6.6L51.8,5L52,7.4L52,7.4z M49.9,9.5c-1.1-0.5-1.7-0.9-2-1.6   l0.9,0.3c0.1,0,0.2,0,0.2-0.1l0.7-1.3l0.7,1.3c0,0.1,0.1,0.1,0.2,0.1L52,7.8l-0.4,1.4c0,0.1,0,0.2,0.1,0.2l1.3,0.7l-1.1,0.6   C51.4,10.2,50.7,9.8,49.9,9.5 M47.4,9.2l-1.1,0.6L44.7,8l2.1-0.2C46.9,8.3,47.1,8.8,47.4,9.2 M47.8,10.7L46.6,10l1.1-0.6   c0.4,0.4,1,0.8,1.8,1.1c1.1,0.5,1.7,0.9,2,1.6l-0.9-0.3c-0.1,0-0.2,0-0.2,0.1l-0.7,1.3L49,11.9c0-0.1-0.1-0.1-0.2-0.1   c0,0,0,0-0.1,0l-1.4,0.4l0.4-1.4C48,10.8,47.9,10.7,47.8,10.7 M52,10.9l1.1-0.6l1.5,1.8l-2.1,0.2C52.6,11.7,52.4,11.3,52,10.9    M52.3,7.8L54.7,8l-1.5,1.8l-1.3-0.7L52.3,7.8L52.3,7.8z M56.2,3.5l-1.3,4l-2.5-0.2l-0.2-2.5L56.2,3.5L56.2,3.5z M59.7,9.8   l-4.2-2.1L57,3.2c0-0.1,0-0.2-0.1-0.3s-0.2-0.1-0.3-0.1l-4.5,1.4L50,0.1c0-0.1-0.1-0.2-0.3-0.2S49.5,0,49.5,0.1   c0,0-1.4,2.1-2.2,4.2l-4.5-1.4c-0.1,0-0.2,0-0.3,0.1s-0.1,0.2-0.1,0.3l1.4,4.5l-4.2,2.1c-0.1,0-0.2,0.1-0.2,0.3s0.1,0.2,0.2,0.3   l4.2,2.1l-1.4,4.5c0,0.1,0,0.2,0.1,0.3c0.1,0.1,0.2,0.1,0.3,0.1l4.5-1.4l0,0l2.1,4.2c0,0.1,0.1,0.1,0.3,0.1c0.1,0,0.2-0.1,0.3-0.2   c0,0,1.4-2.1,2.2-4.2l4.5,1.4c0.1,0,0.2,0,0.3-0.1c0-0.2,0-0.3,0-0.4l-1.4-4.5l4.2-2.1c0.1,0,0.2-0.1,0.2-0.3   C59.9,9.9,59.8,9.8,59.7,9.8"/>
</g>
<g id="Wordmark">
	<polygon points="0.1,5.1 0.1,6.5 3,6.5 3,15 4.6,15 4.6,6.5 7.5,6.5 7.5,5.1  "/>
	<polygon points="19.5,15 19.5,10.6 14.9,10.6 14.9,15 13.3,15 13.3,5.1 14.9,5.1 14.9,9.1 19.5,9.1 19.5,5.1 21.1,5.1 21.1,15  "/>
	<polygon points="33.9,6.5 29.5,6.5 29.5,9.1 33.7,9.1 33.7,10.6 29.5,10.6 29.5,13.5 34,13.5 34,15 27.9,15 27.9,5.1 33.9,5.1  "/>
	<path d="M66.4,12.2c0.1,1.1,1.3,1.5,2.4,1.5s2.3-0.3,2.3-1.6s-1.4-1.4-2.5-1.6C66.8,10.3,65,9.8,65,7.8s1.8-3,3.7-3   c1.9,0,3.7,0.9,3.7,2.9h-1.6c-0.1-1.1-1.2-1.4-2.2-1.4c-0.9,0-2.1,0.4-2.1,1.5s1.1,1.3,2.3,1.4c2,0.2,3.9,0.6,3.9,2.9s-2.1,3-3.9,3   c-2,0-4-0.9-4-3L66.4,12.2L66.4,12.2z"/>
	<polygon points="77.8,6.5 77.8,5.1 85.2,5.1 85.2,6.5 82.4,6.5 82.4,15 80.7,15 80.7,6.5  "/>
	<path d="M92.1,11.6h3.5l-1.7-4L92.1,11.6z M91.5,13l-1,2.1h-1.7v-0.2L93.4,5h0.8l4.6,9.8V15h-1.7l-1-2.1h-4.6V13z"/>
	<path d="M108.4,10.2c1.1,0,1.9-0.8,1.9-1.9s-0.8-1.8-1.9-1.8h-2.5v3.7H108.4z M112.3,14.8V15h-1.7l-2.5-3.5H106V15h-1.7V5h4.1   c2.2,0,3.5,1.5,3.5,3.2c0,1.4-0.8,2.5-2.1,3L112.3,14.8L112.3,14.8z"/>
	<path d="M35.1,29.7c0,0.9-0.8,1.5-2,1.5h-2.5v-5.5H33c1.1,0,1.8,0.5,1.8,1.4c0,0.6-0.3,1.1-0.9,1.2C34.7,28.5,35.1,29,35.1,29.7   L35.1,29.7z M31.4,28.1h1.5c0.8,0,1.2-0.3,1.2-0.9c0-0.5-0.4-0.8-1.2-0.8h-1.6L31.4,28.1L31.4,28.1z M33.1,30.5   c0.8,0,1.3-0.4,1.3-0.9s-0.5-0.8-1.2-0.8h-1.7v1.7L33.1,30.5L33.1,30.5z"/>
	<path d="M38.6,29.3v1.9h-0.8v-5.5H40c1.2,0,2.1,0.7,2.1,1.8c0,0.8-0.5,1.4-1.3,1.7l1.6,2h-0.9L40,29.3H38.6L38.6,29.3z M40,28.6   c0.8,0,1.4-0.4,1.4-1.1s-0.6-1.1-1.4-1.1h-1.4v2.2H40z"/>
	<path d="M45.7,31.2h-0.8v-5.5h0.8V31.2z"/>
	<path d="M52.8,27.2H52c-0.1-0.6-0.5-1-1.4-1c-0.7,0-1.2,0.4-1.2,0.9s0.4,0.7,1,0.8l0.8,0.2c1,0.2,1.6,0.6,1.6,1.5   c0,1-0.8,1.7-2.1,1.7s-2.2-0.7-2.3-1.9h0.8c0.1,0.7,0.7,1.2,1.6,1.2c0.8,0,1.2-0.4,1.2-0.9c0-0.4-0.2-0.7-0.9-0.8l-0.9-0.2   c-1-0.2-1.5-0.7-1.5-1.5c0-1,0.8-1.6,2-1.6C51.6,25.6,52.6,26,52.8,27.2L52.8,27.2z"/>
	<path d="M60.1,29.7c0,0.9-0.8,1.5-2,1.5h-2.5v-5.5H58c1.1,0,1.8,0.5,1.8,1.4c0,0.6-0.3,1.1-0.9,1.2C59.7,28.5,60.1,29,60.1,29.7   L60.1,29.7z M56.3,28.1h1.5c0.8,0,1.2-0.3,1.2-0.9c0-0.5-0.4-0.8-1.2-0.8h-1.6L56.3,28.1L56.3,28.1z M58,30.5   c0.8,0,1.3-0.4,1.3-0.9s-0.5-0.8-1.2-0.8h-1.7v1.7L58,30.5L58,30.5z"/>
	<path d="M63.5,29.7l-0.6,1.4h-0.8l2.4-5.5h0.7l2.4,5.5h-0.8l-0.6-1.4H63.5L63.5,29.7z M64.9,26.6L63.8,29H66L64.9,26.6L64.9,26.6z"/>
	<path d="M74.9,31.2h-0.6l-3.4-4.1v4.1h-0.8v-5.5h0.6l3.4,4.1v-4.1h0.8V31.2L74.9,31.2z"/>
	<path d="M78.7,28.1h2.8v0.7h-2.8v1.7h3.1v0.7h-3.9v-5.5h3.9v0.7h-3.1V28.1L78.7,28.1z"/>
</g>
</svg>